<?xml version="1.0" standalone="no"?>
<!DOCTYPE svg PUBLIC "-//W3C//DTD SVG 20010904//EN"
 "http://www.w3.org/TR/2001/REC-SVG-20010904/DTD/svg10.dtd">
<svg version="1.0" xmlns="http://www.w3.org/2000/svg"
 width="1024.000000pt" height="1024.000000pt" viewBox="0 0 1024.000000 1024.000000"
 preserveAspectRatio="xMidYMid meet">
<metadata>
Created by potrace 1.14, written by Peter Selinger 2001-2017
</metadata>
<g transform="translate(0.000000,1024.000000) scale(0.100000,-0.100000)"
fill="#000000" stroke="none">
<path d="M1602 6767 l-1192 -1192 0 -483 0 -482 1190 0 1190 0 0 -595 0 -595
595 0 595 0 0 1080 0 1080 -1187 0 -1188 0 1183 1183 c650 650 1182 1185 1182
1190 0 4 -264 7 -588 7 l-587 0 -1193 -1193z"/>
<path d="M4490 7370 c0 -324 3 -590 7 -590 5 0 272 264 595 587 l588 588 0
-595 0 -595 -595 -595 -595 -595 0 -592 0 -593 595 0 595 0 0 593 0 592 595
595 595 595 0 597 0 598 -1190 0 -1190 0 0 -590z"/>
<path d="M6275 4980 l-590 -590 593 0 592 0 0 590 c0 325 -1 590 -3 590 -1 0
-268 -265 -592 -590z"/>
<path d="M4490 2830 l0 -590 45 0 45 0 0 590 0 590 -45 0 -45 0 0 -590z"/>
<path d="M6892 3179 c-53 -27 -87 -70 -102 -130 -24 -96 19 -161 145 -218 88
-40 107 -80 60 -126 -19 -20 -34 -25 -74 -25 -42 0 -56 5 -87 32 l-36 32 -39
-44 c-21 -25 -39 -51 -39 -57 0 -7 25 -29 55 -49 44 -29 66 -37 118 -41 140
-12 230 41 262 151 31 106 -2 172 -112 226 -114 56 -136 87 -93 130 26 26 84
26 132 0 l37 -19 37 50 c30 41 34 53 23 60 -51 34 -80 43 -159 46 -72 4 -91 1
-128 -18z"/>
<path d="M5086 3168 c-3 -13 -19 -140 -36 -283 -17 -143 -33 -275 -36 -292
l-5 -33 169 0 c191 0 182 -5 182 85 l0 40 -86 -3 c-48 -2 -90 0 -94 5 -5 4 5
112 20 238 16 127 29 238 30 248 0 15 -10 17 -70 17 -64 0 -70 -2 -74 -22z"/>
<path d="M5707 3168 c-22 -36 -317 -596 -317 -602 0 -4 34 -6 75 -6 l75 0 30
60 30 60 120 0 120 0 17 -60 16 -60 74 0 c40 0 73 1 73 3 0 1 -38 142 -84 312
l-83 310 -66 3 c-60 3 -67 1 -80 -20z m81 -265 c12 -54 22 -101 22 -105 0 -5
-34 -8 -76 -8 -42 0 -74 4 -72 9 17 44 94 201 99 201 3 0 15 -44 27 -97z"/>
<path d="M6122 3003 c-29 -241 -28 -296 1 -348 41 -72 112 -105 228 -105 131
0 222 54 254 149 13 41 65 415 65 469 0 20 -5 22 -69 22 l-69 0 -6 -37 c-3
-21 -15 -114 -26 -206 -21 -176 -34 -216 -76 -243 -34 -23 -103 -23 -137 -1
-48 31 -51 54 -27 252 11 99 23 192 26 208 l6 27 -74 0 -74 0 -22 -187z"/>
<path d="M7477 3108 c-86 -160 -287 -540 -287 -544 0 -2 33 -4 74 -4 l75 0 33
60 33 60 117 0 117 0 17 -60 17 -60 74 0 c73 0 73 0 67 25 -3 14 -41 154 -83
312 l-76 288 -67 3 -66 3 -45 -83z m111 -205 c12 -54 22 -101 22 -105 0 -5
-34 -8 -76 -8 -42 0 -74 4 -72 9 17 44 94 201 99 201 3 0 15 -44 27 -97z"/>
<path d="M7965 3178 c-3 -12 -75 -593 -75 -611 0 -4 33 -7 72 -5 l73 3 22 180
c12 99 22 188 22 198 1 9 4 17 9 17 4 -1 70 -91 147 -200 l140 -200 63 0 c34
0 62 3 62 8 1 4 18 144 38 312 l38 305 -69 3 c-38 2 -71 1 -73 0 -1 -2 -12
-84 -24 -183 -12 -99 -24 -188 -28 -198 -5 -13 -40 30 -147 183 l-140 199 -63
1 c-42 0 -64 -4 -67 -12z"/>
<path d="M8715 3178 c-5 -15 -75 -577 -75 -602 0 -13 12 -16 70 -16 l69 0 5
33 c3 17 12 91 21 162 21 180 26 206 35 200 4 -3 70 -93 146 -200 l137 -195
58 0 c32 0 60 4 63 8 5 8 76 569 76 602 0 18 -7 20 -70 20 -38 0 -70 -1 -70
-2 0 -19 -51 -392 -53 -394 -2 -2 -66 85 -143 194 l-139 197 -63 3 c-44 2 -64
-1 -67 -10z"/>
<path d="M9460 3180 c0 -5 -16 -138 -35 -294 -19 -157 -35 -294 -35 -306 0
-19 6 -20 170 -20 128 0 172 3 175 13 2 6 6 33 10 59 l6 47 -103 3 -103 3 3
45 c6 94 1 90 107 90 51 0 96 3 98 8 3 4 8 33 11 65 l7 57 -99 0 c-111 0 -101
-9 -87 83 l6 37 100 0 c110 0 104 -4 113 73 l6 47 -175 0 c-106 0 -175 -4
-175 -10z"/>
</g>
</svg>
